<svg width="18" height="21" viewBox="0 0 18 21" fill="none" xmlns="http://www.w3.org/2000/svg">
<path d="M9.25 20.5C7.84375 20.5 6.75 19.4062 6.75 18H11.75C11.75 19.4062 10.6172 20.5 9.25 20.5ZM17.6484 14.6797C17.8828 14.9141 18 15.2266 18 15.5C17.9609 16.1641 17.4922 16.75 16.7109 16.75H1.75C1.00781 16.75 0.5 16.1641 0.5 15.5C0.5 15.2266 0.578125 14.9141 0.8125 14.6797C1.55469 13.8594 3 12.6484 3 8.625C3 5.61719 5.10938 3.19531 8 2.57031V1.75C8 1.08594 8.54688 0.5 9.25 0.5C9.91406 0.5 10.5 1.08594 10.5 1.75V2.57031C13.3516 3.19531 15.4609 5.61719 15.4609 8.625C15.4609 12.6484 16.9062 13.8594 17.6484 14.6797Z" fill="#81D4FA"/>
</svg>
