<svg width="12" height="17" viewBox="0 0 12 17" fill="none" xmlns="http://www.w3.org/2000/svg">
<path d="M10.5 2.83667C11.3125 2.83667 12 3.52417 12 4.33667V15.3367C12 16.1804 11.3125 16.8367 10.5 16.8367H1.5C0.65625 16.8367 0 16.1804 0 15.3367V4.33667C0 3.52417 0.65625 2.83667 1.5 2.83667H3.15625C3.59375 1.68042 4.6875 0.83667 6 0.83667C7.28125 0.83667 8.375 1.68042 8.8125 2.83667H10.5ZM3 13.0867C3.40625 13.0867 3.75 12.7742 3.75 12.3367C3.75 11.9304 3.40625 11.5867 3 11.5867C2.5625 11.5867 2.25 11.9304 2.25 12.3367C2.25 12.7742 2.5625 13.0867 3 13.0867ZM3 10.0867C3.40625 10.0867 3.75 9.77417 3.75 9.33667C3.75 8.93042 3.40625 8.58667 3 8.58667C2.5625 8.58667 2.25 8.93042 2.25 9.33667C2.25 9.77417 2.5625 10.0867 3 10.0867ZM6 2.83667C5.4375 2.83667 5 3.30542 5 3.83667C5 4.39917 5.4375 4.83667 6 4.83667C6.53125 4.83667 7 4.39917 7 3.83667C7 3.30542 6.53125 2.83667 6 2.83667ZM9.5 12.8367C9.75 12.8367 10 12.6179 10 12.3367C10 12.0867 9.75 11.8367 9.5 11.8367H5.5C5.21875 11.8367 5 12.0867 5 12.3367C5 12.6179 5.21875 12.8367 5.5 12.8367H9.5ZM9.5 9.83667C9.75 9.83667 10 9.61792 10 9.33667C10 9.08667 9.75 8.83667 9.5 8.83667H5.5C5.21875 8.83667 5 9.08667 5 9.33667C5 9.61792 5.21875 9.83667 5.5 9.83667H9.5Z" fill="#269137"/>
</svg>
