<svg width="14" height="14" viewBox="0 0 14 14" fill="none" xmlns="http://www.w3.org/2000/svg">
<path d="M7 0.6875C10.6094 0.6875 13.5625 3.64062 13.5625 7.25C13.5625 10.8867 10.6094 13.8125 7 13.8125C3.36328 13.8125 0.4375 10.8867 0.4375 7.25C0.4375 3.64062 3.36328 0.6875 7 0.6875ZM7 12.5C9.87109 12.5 12.25 10.1484 12.25 7.25C12.25 4.37891 9.87109 2 7 2C4.10156 2 1.75 4.37891 1.75 7.25C1.75 10.1484 4.10156 12.5 7 12.5ZM7.65625 7.35938L9.13281 8.48047C9.43359 8.69922 9.48828 9.10938 9.26953 9.41016C9.13281 9.57422 8.94141 9.65625 8.72266 9.65625C8.58594 9.65625 8.44922 9.62891 8.33984 9.54688L6.58984 8.23438C6.42578 8.09766 6.34375 7.90625 6.34375 7.6875V4.40625C6.34375 4.05078 6.61719 3.75 7 3.75C7.35547 3.75 7.65625 4.05078 7.65625 4.40625V7.35938Z" fill="#ABA8A8"/>
</svg>
