<svg width="22" height="24" viewBox="0 0 22 24" fill="none" xmlns="http://www.w3.org/2000/svg">
<path d="M21.5 3.75C21.5 5.4375 20.375 6.84375 18.875 7.3125V9C18.875 11.2969 17 13.125 14.75 13.125H7.25C6.17188 13.125 5.375 13.9688 5.375 15V16.7344C6.875 17.2031 8 18.6094 8 20.25C8 22.3594 6.3125 24 4.25 24C2.14062 24 0.5 22.3594 0.5 20.25C0.5 18.6094 1.57812 17.2031 3.125 16.7344V7.3125C1.57812 6.84375 0.5 5.4375 0.5 3.75C0.5 1.6875 2.14062 0 4.25 0C6.3125 0 8 1.6875 8 3.75C8 5.4375 6.875 6.84375 5.375 7.3125V11.3906C5.9375 11.0625 6.54688 10.875 7.25 10.875H14.75C15.7812 10.875 16.625 10.0781 16.625 9V7.3125C15.0781 6.84375 14 5.4375 14 3.75C14 1.6875 15.6406 0 17.75 0C19.8125 0 21.5 1.6875 21.5 3.75ZM4.25 2.25C3.40625 2.25 2.75 2.95312 2.75 3.75C2.75 4.59375 3.40625 5.25 4.25 5.25C5.04688 5.25 5.75 4.59375 5.75 3.75C5.75 2.95312 5.04688 2.25 4.25 2.25ZM4.25 21.75C5.04688 21.75 5.75 21.0938 5.75 20.25C5.75 19.4531 5.04688 18.75 4.25 18.75C3.40625 18.75 2.75 19.4531 2.75 20.25C2.75 21.0938 3.40625 21.75 4.25 21.75ZM17.75 5.25C18.5469 5.25 19.25 4.59375 19.25 3.75C19.25 2.95312 18.5469 2.25 17.75 2.25C16.9062 2.25 16.25 2.95312 16.25 3.75C16.25 4.59375 16.9062 5.25 17.75 5.25Z" fill="#3BB24A"/>
</svg>
