<svg width="32" height="33" viewBox="0 0 32 33" fill="none" xmlns="http://www.w3.org/2000/svg">
<path d="M16 26.625C17 26.625 18 26.3125 18.875 25.6875L32 16.1875L32 29.5C32 31.1875 30.625 32.5 29 32.5L3 32.5C1.3125 32.5 1.49542e-07 31.1875 1.41821e-07 29.5L8.09183e-08 16.1875L13.0625 25.6875C13.9375 26.3125 14.9375 26.625 16 26.625ZM30.8125 10.75C31.5625 11.3125 32 12.1875 32 13.0625L32 13.75L26 18.0625L26 6.5625L6 6.5625L6 18.0625L6.9767e-08 13.75L6.66218e-08 13.0625C6.26187e-08 12.1875 0.375 11.3125 1.125 10.75C1.6875 10.3125 2.1875 9.875 3 9.3125L3 6.5625C3 4.875 4.3125 3.5625 6 3.5625L10.8125 3.5625C11 3.375 11.1875 3.25 11.375 3.125C12.4375 2.375 14.5 0.5 16 0.5625C17.4375 0.5 19.5 2.375 20.5625 3.125C20.75 3.25 20.9375 3.375 21.125 3.5625L26 3.5625C27.625 3.5625 29 4.875 29 6.5625L29 9.3125C29.75 9.875 30.25 10.3125 30.8125 10.75ZM11 16.5C10.4375 16.5 10 16.0625 10 15.5C10 15 10.4375 14.5 11 14.5L21 14.5C21.5 14.5 22 15 22 15.5C22 16.0625 21.5 16.5 21 16.5L11 16.5ZM11 12.5C10.4375 12.5 10 12.0625 10 11.5C10 11 10.4375 10.5 11 10.5L21 10.5C21.5 10.5 22 11 22 11.5C22 12.0625 21.5 12.5 21 12.5L11 12.5Z" fill="white"/>
</svg>
