<svg width="16" height="16" viewBox="0 0 16 16" fill="none" xmlns="http://www.w3.org/2000/svg">
<path d="M16 8C16 8.28125 15.875 8.53125 15.6875 8.71875L13.4375 10.9688C13.25 11.1562 13 11.25 12.75 11.25C12.1562 11.25 11.75 10.8125 11.75 10.25C11.75 10 11.8438 9.75 12.0312 9.5625L12.5625 9H9V12.5938L9.53125 12.0625C9.71875 11.875 9.96875 11.75 10.25 11.75C10.8125 11.75 11.25 12.2188 11.25 12.75C11.25 13.0312 11.125 13.2812 10.9375 13.4688L8.6875 15.7188C8.5 15.9062 8.25 16 8 16C7.71875 16 7.46875 15.9062 7.28125 15.7188L5.03125 13.4688C4.84375 13.2812 4.75 13.0312 4.75 12.75C4.75 12.2188 5.15625 11.75 5.75 11.75C6 11.75 6.25 11.875 6.4375 12.0625L7 12.5938V9H3.40625L3.9375 9.5625C4.125 9.75 4.25 10 4.25 10.25C4.25 10.8125 3.8125 11.25 3.25 11.25C2.96875 11.25 2.71875 11.1562 2.53125 10.9688L0.28125 8.71875C0.09375 8.53125 0 8.28125 0 8C0 7.75 0.09375 7.5 0.28125 7.3125L2.53125 5.0625C2.71875 4.875 2.96875 4.75 3.25 4.75C3.8125 4.75 4.25 5.21875 4.25 5.75C4.25 6.03125 4.125 6.28125 3.9375 6.46875L3.40625 7H7V3.4375L6.4375 3.96875C6.25 4.15625 6 4.25 5.75 4.25C5.15625 4.25 4.75 3.8125 4.75 3.25C4.75 3 4.84375 2.75 5.03125 2.5625L7.28125 0.3125C7.46875 0.125 7.71875 0 8 0C8.25 0 8.5 0.125 8.6875 0.3125L10.9375 2.5625C11.125 2.75 11.25 3 11.25 3.25C11.25 3.8125 10.8125 4.25 10.25 4.25C9.96875 4.25 9.71875 4.15625 9.53125 3.96875L9 3.4375V7H12.5625L12.0312 6.46875C11.8438 6.28125 11.75 6.03125 11.75 5.75C11.75 5.21875 12.1562 4.75 12.75 4.75C13 4.75 13.25 4.875 13.4375 5.0625L15.6875 7.3125C15.875 7.5 16 7.75 16 8Z" fill="#3BB24A"/>
</svg>
