<svg width="20" height="15" viewBox="0 0 20 15" fill="none" xmlns="http://www.w3.org/2000/svg">
<path d="M19.4688 4.28125C19.7812 4.40625 20 4.6875 20 5C20 5.34375 19.7812 5.625 19.4688 5.75L10.6562 8.90625C10.2188 9.0625 9.75 9.0625 9.3125 8.90625L3.375 6.78125C3 7.1875 2.71875 7.6875 2.59375 8.25C2.8125 8.40625 3 8.6875 3 9C3 9.3125 2.84375 9.59375 2.625 9.78125L3.375 14.4375C3.4375 14.75 3.21875 15 2.90625 15H1.0625C0.78125 15 0.53125 14.75 0.59375 14.4375L1.34375 9.78125C1.125 9.59375 1 9.3125 1 9C1 8.59375 1.25 8.25 1.59375 8.09375C1.71875 7.46875 2 6.90625 2.375 6.40625L0.5 5.75C0.1875 5.625 0 5.34375 0 5C0 4.6875 0.1875 4.40625 0.5 4.28125L9.3125 1.125C9.75 0.96875 10.2188 0.96875 10.6562 1.125L19.4688 4.28125ZM10.9688 9.84375L15.5312 8.21875L16 12.6875C16 13.9688 13.2812 15 10 15C6.65625 15 4 13.9688 4 12.6875L4.4375 8.21875L8.96875 9.84375C9.3125 9.96875 9.65625 10 10 10C10.3125 10 10.6562 9.96875 10.9688 9.84375Z" fill="#3BB24A"/>
</svg>
