<svg width="16" height="16" viewBox="0 0 16 16" fill="none" xmlns="http://www.w3.org/2000/svg">
<path d="M3 0C3.53125 0 4 0.46875 4 1V3C4 3.5625 3.53125 4 3 4H1C0.4375 4 0 3.5625 0 3V1C0 0.46875 0.4375 0 1 0H3ZM9 0C9.53125 0 10 0.46875 10 1V3C10 3.5625 9.53125 4 9 4H7C6.4375 4 6 3.5625 6 3V1C6 0.46875 6.4375 0 7 0H9ZM15 0C15.5312 0 16 0.46875 16 1V3C16 3.5625 15.5312 4 15 4H13C12.4375 4 12 3.5625 12 3V1C12 0.46875 12.4375 0 13 0H15ZM3 12C3.53125 12 4 12.4688 4 13V15C4 15.5625 3.53125 16 3 16H1C0.4375 16 0 15.5625 0 15V13C0 12.4688 0.4375 12 1 12H3ZM9 12C9.53125 12 10 12.4688 10 13V15C10 15.5625 9.53125 16 9 16H7C6.4375 16 6 15.5625 6 15V13C6 12.4688 6.4375 12 7 12H9ZM15 12C15.5312 12 16 12.4688 16 13V15C16 15.5625 15.5312 16 15 16H13C12.4375 16 12 15.5625 12 15V13C12 12.4688 12.4375 12 13 12H15ZM3 6C3.53125 6 4 6.46875 4 7V9C4 9.5625 3.53125 10 3 10H1C0.4375 10 0 9.5625 0 9V7C0 6.46875 0.4375 6 1 6H3ZM9 6C9.53125 6 10 6.46875 10 7V9C10 9.5625 9.53125 10 9 10H7C6.4375 10 6 9.5625 6 9V7C6 6.46875 6.4375 6 7 6H9ZM15 6C15.5312 6 16 6.46875 16 7V9C16 9.5625 15.5312 10 15 10H13C12.4375 10 12 9.5625 12 9V7C12 6.46875 12.4375 6 13 6H15Z" fill="#3BB24A"/>
</svg>
