<svg width="26" height="16" viewBox="0 0 26 16" fill="none" xmlns="http://www.w3.org/2000/svg">
<path d="M0.5 12.5V2.53906H4.25V11.25C4.25 11.9531 3.66406 12.5 3 12.5H0.5ZM2.375 10.0391C2.02344 10.0391 1.75 10.3125 1.75 10.6641C1.75 10.9766 2.02344 11.2891 2.375 11.2891C2.6875 11.2891 3 10.9766 3 10.6641C3 10.3125 2.6875 10.0391 2.375 10.0391ZM14.0938 0H14.4453C16.7109 0 18.8594 0.9375 20.4609 2.5V10.0781C20.3828 9.96094 20.2656 9.88281 20.1875 9.76562L14.4844 5.15625L15.5 4.21875C15.7734 3.98438 15.7734 3.59375 15.5391 3.35938C15.3047 3.08594 14.9141 3.08594 14.6406 3.32031L11.5547 6.17188C11.5156 6.17188 11.5156 6.17188 11.5156 6.17188C10.8516 6.75781 9.83594 6.60156 9.32812 6.05469C8.78125 5.46875 8.78125 4.49219 9.40625 3.86719L13.2734 0.351562C13.5078 0.117188 13.7812 0 14.0938 0ZM13.5469 6.01562L19.3672 10.7422C19.9141 11.1719 19.9922 11.9531 19.5625 12.5L19.2109 12.9688C18.7422 13.5156 17.9609 13.5938 17.4141 13.1641L17.2188 12.9688L16.0078 14.4922C15.5 15.1172 14.5625 15.1953 13.9375 14.6875L13.2734 14.1016H13.2344C12.375 15.1562 10.8125 15.3125 9.71875 14.4531L6.20312 11.25H5.5V2.5C7.10156 0.898438 9.25 0 11.5156 0H11.7891L8.58594 2.92969C7.45312 3.98438 7.375 5.78125 8.39062 6.91406C9.44531 8.04688 11.2031 8.16406 12.375 7.07031L13.5469 6.01562ZM21.75 2.53906H25.5V12.5391H23C22.2969 12.5391 21.75 11.9531 21.75 11.2891V2.53906ZM23.625 11.2891C23.9375 11.2891 24.25 10.9766 24.25 10.6641C24.25 10.3125 23.9375 10.0391 23.625 10.0391C23.2734 10.0391 23 10.3125 23 10.6641C23 10.9766 23.2734 11.2891 23.625 11.2891Z" fill="#81D4FA"/>
</svg>
