<svg width="37" height="33" viewBox="0 0 37 33" fill="none" xmlns="http://www.w3.org/2000/svg">
<path d="M35.1875 20.0625C36.1875 20.875 36.75 22.125 36.6875 23.375C36.6875 24.6875 36.0625 25.875 35 26.625L28.75 31.375C27.75 32.125 26.5 32.5 25.25 32.5H2.25C1.375 32.5 0.75 31.875 0.75 31.0625C0.75 30.1875 1.375 29.5625 2.25 29.5625H25.25C25.875 29.5625 26.4375 29.3125 26.9375 29L33.25 24.25C33.875 23.75 33.9375 22.875 33.25 22.3125C32.8125 21.9375 32 21.9375 31.5 22.3125L27.6875 25.1875C27.1875 25.5625 26.625 25.75 26 25.75H17.5625C17.125 25.75 16.75 25.375 16.75 24.9375C16.75 24.4375 17.125 24.0625 17.5625 24.0625H21.3125C23.1875 24.0625 23.125 21.5625 21.375 21.5625H12.375C11.25 21.5625 10.1875 21.875 9.3125 22.5625L6.75 24.5625H2.25C1.375 24.5625 0.75 23.875 0.75 23.0625C0.75 22.1875 1.375 21.5625 2.25 21.5625H5.6875L7.5 20.1875C8.875 19.125 10.625 18.5 12.375 18.5H21.375C23.8125 18.5 25.6875 20.375 25.6875 22.75H25.9375L29.6875 19.9375C30.875 19 33.25 18.375 35.1875 20.0625ZM18.1875 11.5C19.25 11.625 20.125 11.4375 20.1875 11C20.25 10.6875 20.25 10.5625 18.3125 10L17.875 9.875C16.75 9.5 13.75 8.625 14.3125 5.5625C14.5625 4.0625 15.625 3.0625 17.25 2.6875V2C17.25 1.1875 17.875 0.5 18.6875 0.5C19.5625 0.5 20.1875 1.1875 20.1875 2V2.75C20.5625 2.8125 21 2.9375 21.4375 3.0625C22.25 3.375 22.625 4.1875 22.375 5C22.125 5.8125 21.25 6.1875 20.5 5.9375C19.9375 5.75 19.5625 5.625 19.25 5.5625C18.1875 5.4375 17.3125 5.625 17.25 6.0625C17.1875 6.3125 17.1875 6.5 18.75 7L19.125 7.0625C20.75 7.5625 23.6875 8.375 23.125 11.5C22.875 13 21.8125 14 20.1875 14.375V15C20.1875 15.875 19.5625 16.5 18.6875 16.5C17.875 16.5 17.25 15.875 17.25 15V14.3125C16.625 14.1875 16.0625 14 15.5 13.8125L15.25 13.6875C14.4375 13.4375 14 12.5625 14.3125 11.75C14.5625 11 15.4375 10.5625 16.25 10.875L16.5 11C17.0625 11.1875 17.6875 11.375 18.1875 11.5Z" fill="#0D3F46"/>
</svg>
