<svg width="33" height="33" viewBox="0 0 33 33" fill="none" xmlns="http://www.w3.org/2000/svg">
<path d="M16.25 0.5C25.1875 0.5 31.9375 8 32.25 16.5V25.5C32.25 28.5625 29.75 31 26.75 31H19.8125C19.3125 31.9375 18.3125 32.5 17.25 32.5H15.25C13.5625 32.5 12.25 31.1875 12.25 29.5C12.25 27.875 13.5625 26.5 15.25 26.5H17.25C18.3125 26.5 19.3125 27.125 19.8125 28H26.75C28.125 28 29.25 26.9375 29.25 25.5V24.25C28.75 24.4375 28.1875 24.5 27.625 24.5H26.5C25.25 24.5 24.25 23.5 24.25 22.1875V13.875C24.25 12.5625 25.25 11.5 26.5 11.5H27.625C27.875 11.5 28.0625 11.5625 28.25 11.625C26.3125 6.875 21.625 3.5625 16.25 3.5625C10.8125 3.5625 6.125 6.875 4.1875 11.625C4.375 11.5625 4.5625 11.5 4.8125 11.5H5.9375C7.1875 11.5 8.25 12.5625 8.25 13.875V22.1875C8.25 23.5 7.1875 24.5 5.9375 24.5H4.8125C2.25 24.5 0.25 22.4375 0.25 19.875V16.5C0.5 8 7.25 0.5 16.25 0.5ZM4.8125 14.5C3.9375 14.5 3.3125 15.25 3.25 16.0625C3.25 16.25 3.25 16.375 3.25 16.5V19.875C3.25 20.75 3.9375 21.5 4.8125 21.5H5.25V14.5H4.8125ZM27.625 21.5C28.5 21.5 29.25 20.75 29.25 19.875V16.5C29.25 16.375 29.1875 16.25 29.1875 16.0625C29.125 15.25 28.5 14.5 27.625 14.5H27.25V21.5H27.625Z" fill="#0D3F46"/>
</svg>
