<svg width="16" height="21" viewBox="0 0 16 21" fill="none" xmlns="http://www.w3.org/2000/svg">
<path d="M10.5 7.45312C10.5 7.60938 10.3438 7.76562 10.1484 7.76562H8.97656V8.9375C8.97656 9.13281 8.82031 9.25 8.66406 9.25H7.29688C7.14062 9.25 6.98438 9.13281 6.98438 8.9375V7.76562H5.8125C5.61719 7.76562 5.5 7.60938 5.5 7.45312V6.08594C5.5 5.92969 5.61719 5.77344 5.8125 5.77344H6.98438V4.60156C6.98438 4.40625 7.14062 4.25 7.29688 4.25H8.66406C8.82031 4.25 8.97656 4.40625 8.97656 4.60156V5.77344H10.1484C10.3438 5.77344 10.5 5.92969 10.5 6.08594V7.45312ZM6.28125 11.75C6.51562 11.75 6.75 11.9844 6.75 12.2188V13.7812C6.75 14.0547 6.51562 14.25 6.28125 14.25H4.71875C4.44531 14.25 4.25 14.0547 4.25 13.7812V12.2188C4.25 11.9844 4.44531 11.75 4.71875 11.75H6.28125ZM6.28125 15.5C6.51562 15.5 6.75 15.7344 6.75 15.9688V17.5312C6.75 17.8047 6.51562 18 6.28125 18H4.71875C4.44531 18 4.25 17.8047 4.25 17.5312V15.9688C4.25 15.7344 4.44531 15.5 4.71875 15.5H6.28125ZM13 0.5C14.3672 0.5 15.5 1.63281 15.5 3V19.5625C15.5 20.1094 15.0703 20.5 14.5625 20.5C14.0156 20.5 13.625 20.1094 13.625 19.5625V3C13.625 2.6875 13.3125 2.375 13 2.375H3C2.64844 2.375 2.375 2.6875 2.375 3V19.5625C2.375 20.1094 1.94531 20.5 1.4375 20.5C0.890625 20.5 0.5 20.1094 0.5 19.5625V3C0.5 1.63281 1.59375 0.5 3 0.5H13ZM11.2812 11.75C11.5156 11.75 11.75 11.9844 11.75 12.2188V13.7812C11.75 14.0547 11.5156 14.25 11.2812 14.25H9.71875C9.44531 14.25 9.25 14.0547 9.25 13.7812V12.2188C9.25 11.9844 9.44531 11.75 9.71875 11.75H11.2812ZM11.2812 15.5C11.5156 15.5 11.75 15.7344 11.75 15.9688V17.5312C11.75 17.8047 11.5156 18 11.2812 18H9.71875C9.44531 18 9.25 17.8047 9.25 17.5312V15.9688C9.25 15.7344 9.44531 15.5 9.71875 15.5H11.2812Z" fill="#81D4FA"/>
</svg>
