<svg width="16" height="16" viewBox="0 0 16 16" fill="none" xmlns="http://www.w3.org/2000/svg">
<path d="M15 14C15.5312 14 16 14.4688 16 15C16 15.5625 15.5312 16 15 16H9.5V13H6.5V16H1C0.4375 16 0 15.5625 0 15C0 14.4688 0.4375 14 1 14V2C0.4375 2 0 1.5625 0 1C0 0.46875 0.4375 0 1 0H15C15.5312 0 16 0.46875 16 1C16 1.5625 15.5312 2 15 2V14ZM7 3.40625V4.625C7 4.8125 7.1875 5 7.375 5H8.59375C8.78125 5 9 4.8125 9 4.625V3.40625C9 3.21875 8.78125 3 8.59375 3H7.375C7.1875 3 7 3.21875 7 3.40625ZM7 6.40625V7.625C7 7.8125 7.1875 8 7.375 8H8.59375C8.78125 8 9 7.8125 9 7.625V6.40625C9 6.21875 8.78125 6 8.59375 6H7.375C7.1875 6 7 6.21875 7 6.40625ZM3 3.40625V4.625C3 4.8125 3.1875 5 3.375 5H4.59375C4.78125 5 5 4.8125 5 4.625V3.40625C5 3.21875 4.78125 3 4.59375 3H3.375C3.1875 3 3 3.21875 3 3.40625ZM4.59375 8C4.78125 8 5 7.8125 5 7.625V6.40625C5 6.21875 4.78125 6 4.59375 6H3.375C3.1875 6 3 6.21875 3 6.40625V7.625C3 7.8125 3.1875 8 3.375 8H4.59375ZM5 12H11C11 10.3438 9.65625 9 8 9C6.34375 9 5 10.3438 5 12ZM13 7.625V6.40625C13 6.21875 12.7812 6 12.5938 6H11.375C11.1875 6 11 6.21875 11 6.40625V7.625C11 7.8125 11.1875 8 11.375 8H12.5938C12.7812 8 13 7.8125 13 7.625ZM13 4.625V3.40625C13 3.21875 12.7812 3 12.5938 3H11.375C11.1875 3 11 3.21875 11 3.40625V4.625C11 4.8125 11.1875 5 11.375 5H12.5938C12.7812 5 13 4.8125 13 4.625Z" fill="#3BB24A"/>
</svg>
