<svg width="21" height="21" viewBox="0 0 21 21" fill="none" xmlns="http://www.w3.org/2000/svg">
<path d="M13.625 0.5C17.4141 0.5 20.5 3.58594 20.5 7.375C20.5 11.2031 17.4141 14.25 13.625 14.25C13.0391 14.25 12.4922 14.1719 11.9453 14.0547L10.6562 15.3438C10.5391 15.4609 10.3828 15.5 10.2266 15.5H8V17.375C8 17.7266 7.6875 18 7.375 18H5.5V19.875C5.5 20.2266 5.1875 20.5 4.875 20.5H1.125C0.773438 20.5 0.5 20.2266 0.5 19.875V16.0469C0.5 15.6953 0.617188 15.3828 0.851562 15.1484L6.94531 9.05469C6.82812 8.50781 6.75 7.96094 6.75 7.375C6.75 3.58594 9.79688 0.5 13.625 0.5ZM15.1875 7.375C16.0469 7.375 16.75 6.71094 16.75 5.8125C16.75 4.95312 16.0469 4.25 15.1875 4.25C14.2891 4.25 13.625 4.95312 13.625 5.8125C13.625 6.71094 14.2891 7.375 15.1875 7.375Z" fill="#81D4FA"/>
</svg>
