<svg width="16" height="16" viewBox="0 0 16 16" fill="none" xmlns="http://www.w3.org/2000/svg">
<path d="M15.5 14C15.75 14 16 14.25 16 14.5V15.5C16 15.7812 15.75 16 15.5 16H0.5C0.21875 16 0 15.7812 0 15.5V14.5C0 14.25 0.21875 14 0.5 14H1V13C1 12.4688 1.4375 12 2 12V6H4V12H7V6H9V12H12V6H14V12C14.5312 12 15 12.4688 15 13V14H15.5ZM15.6562 2.90625C15.8438 2.96875 16 3.15625 16 3.375V4.5C16 4.78125 15.75 5 15.5 5H0.5C0.21875 5 0 4.78125 0 4.5V3.375C0 3.15625 0.125 2.96875 0.3125 2.90625L7.625 0.09375C7.71875 0.03125 7.875 0 8 0C8.09375 0 8.25 0.03125 8.34375 0.09375L15.6562 2.90625Z" fill="#3BB24A"/>
</svg>
