<svg width="18" height="14" viewBox="0 0 18 14" fill="none" xmlns="http://www.w3.org/2000/svg">
<path d="M1 4.5C1.34375 4.5 1.625 4.71875 1.8125 5L15 1V13L10.875 11.7812C10.5312 13.0625 9.375 14 8 14C6.34375 14 5 12.6562 5 11C5 10.6875 5.0625 10.3438 5.15625 10.0625L1.8125 9.03125C1.625 9.3125 1.34375 9.5 1 9.5C0.4375 9.5 0 9.0625 0 8.5V5.5C0 4.96875 0.4375 4.5 1 4.5ZM6.59375 10.4688C6.53125 10.6562 6.5 10.8125 6.5 11C6.5 11.8438 7.15625 12.5 8 12.5C8.6875 12.5 9.28125 12 9.4375 11.3438L6.59375 10.4688ZM17.5 0C17.75 0 18 0.25 18 0.5V13.5C18 13.7812 17.75 14 17.5 14H16.5C16.2188 14 16 13.7812 16 13.5V0.5C16 0.25 16.2188 0 16.5 0H17.5Z" fill="#3BB24A"/>
</svg>
