<svg width="41" height="33" viewBox="0 0 41 33" fill="none" xmlns="http://www.w3.org/2000/svg">
<path d="M26.25 16.5C26.25 18.75 24.4375 20.5 22.25 20.5H14.25L7.4375 24.375C7.25 24.5 7.125 24.5 7 24.5C6.5625 24.5 6.25 24.25 6.25 23.75V20.5H4.25C2 20.5 0.25 18.75 0.25 16.5V4.5C0.25 2.3125 2 0.5 4.25 0.5H22.25C24.4375 0.5 26.25 2.3125 26.25 4.5V16.5ZM13.4375 17.5H22.25C22.75 17.5 23.25 17.0625 23.25 16.5V4.5C23.25 4 22.75 3.5 22.25 3.5H4.25C3.6875 3.5 3.25 4 3.25 4.5V16.5C3.25 17.0625 3.6875 17.5 4.25 17.5H9.25V19.9375L12.75 17.9375L13.4375 17.5ZM36.25 8.5C38.4375 8.5 40.25 10.3125 40.25 12.5V24.5C40.25 26.75 38.4375 28.5 36.25 28.5H34.25V31.9375C34.25 32.4375 33.625 32.6875 33.25 32.4375L28.0625 28.5H20.25C18 28.5 16.25 26.75 16.25 24.5V22.5H22.25C25.5 22.5 28.25 19.8125 28.25 16.5V8.5H36.25Z" fill="#0D3F46"/>
</svg>
