<svg width="23" height="33" viewBox="0 0 23 33" fill="none" xmlns="http://www.w3.org/2000/svg">
<path d="M18.75 0.5C20.9375 0.5 22.75 2.3125 22.75 4.5V28.5C22.75 30.75 20.9375 32.5 18.75 32.5H4.75C2.5 32.5 0.75 30.75 0.75 28.5V4.5C0.75 2.3125 2.5 0.5 4.75 0.5H18.75ZM19.75 28.5V4.5C19.75 4 19.25 3.5 18.75 3.5H4.75C4.1875 3.5 3.75 4 3.75 4.5V28.5C3.75 29.0625 4.1875 29.5 4.75 29.5H18.75C19.25 29.5 19.75 29.0625 19.75 28.5ZM13.75 25.5C14.25 25.5 14.75 26 14.75 26.5C14.75 27.0625 14.25 27.5 13.75 27.5H9.75C9.1875 27.5 8.75 27.0625 8.75 26.5C8.75 26 9.1875 25.5 9.75 25.5H13.75Z" fill="#0D3F46"/>
</svg>
