<svg width="15" height="15" viewBox="0 0 15 15" fill="none" xmlns="http://www.w3.org/2000/svg">
<path d="M12 1.5H2.5C1.9375 1.5 1.5 1.96875 1.5 2.5V12C0.65625 12 0 11.3438 0 10.5V2C0 0.90625 0.875 0 2 0H10.5C11.3125 0 12 0.6875 12 1.5ZM15 4.5V12L12 15H4.5C3.65625 15 3 14.3438 3 13.5V4.5C3 3.6875 3.65625 3 4.5 3H13.5C14.3125 3 15 3.6875 15 4.5ZM12 8.25C12 8.125 11.875 8 11.75 8H10V6.25C10 6.125 9.875 6 9.75 6H8.25C8.09375 6 8 6.125 8 6.25V8H6.25C6.09375 8 6 8.125 6 8.25V9.75C6 9.90625 6.09375 10 6.25 10H8V11.75C8 11.9062 8.09375 12 8.25 12H9.75C9.875 12 10 11.9062 10 11.75V10H11.75C11.875 10 12 9.90625 12 9.75V8.25Z" fill="#3BB24A"/>
</svg>
