<svg width="37" height="35" viewBox="0 0 37 35" fill="none" xmlns="http://www.w3.org/2000/svg">
<path d="M21.4695 12.6503C22.9711 13.7556 23.8767 15.3951 23.9744 17.1423C24.0757 18.952 23.3587 20.6823 21.9898 21.9482C21.7507 22.1494 21.3833 22.2951 21.0713 22.3126C20.6344 22.337 20.1871 22.1743 19.8542 21.8173C19.32 21.2212 19.3301 20.2817 19.9851 19.6817C20.6401 19.0816 21.0315 18.246 20.9791 17.3099C20.9302 16.4363 20.448 15.6495 19.7302 15.1263C19.0123 14.6031 18.8975 13.6705 19.3618 13.0186C19.8885 12.3631 20.8176 12.186 21.4695 12.6503ZM25.0177 7.81947C27.955 9.97123 29.766 13.2502 29.9651 16.8071C30.1676 20.4264 28.7337 23.887 26.0513 26.2906C25.7532 26.5576 25.4482 26.6999 25.0738 26.7209C24.637 26.7453 24.2521 26.5791 23.9191 26.2221C23.3226 25.6295 23.395 24.6865 23.9876 24.0899C26.015 22.2864 27.1199 19.658 26.9697 16.9747C26.8231 14.3538 25.4319 11.8652 23.2159 10.299C22.5605 9.77231 22.3833 8.84326 22.91 8.18781C23.3743 7.53585 24.3033 7.35867 25.0177 7.81947ZM28.5658 2.98869C32.9388 6.18687 35.6554 11.1053 35.9557 16.4719C36.2595 21.9009 34.1086 27.0917 30.1197 30.7578C29.8217 31.0248 29.5166 31.1671 29.2046 31.1845C28.7678 31.209 28.3205 31.0462 27.9876 30.6893C27.4534 30.0932 27.4634 29.1537 28.056 28.5571C31.39 25.4911 33.2153 21.1949 32.9604 16.6395C32.709 12.1465 30.4157 8.08079 26.7606 5.40583C26.1051 4.87913 25.9903 3.94658 26.4546 3.29462C26.9813 2.63917 27.9104 2.46199 28.5658 2.98869ZM13.1456 12.6779L9.82079 12.5509C8.76829 16.1153 8.9813 19.9218 10.4249 23.3465L13.7148 22.8494C14.3353 22.7521 15.0427 23.0881 15.3272 23.6982L17.6798 28.8248C18.0302 29.4937 17.7636 30.3224 17.2229 30.7283L13.1262 33.5866C12.5856 33.9924 11.7673 33.913 11.2402 33.4417C2.21267 25.371 1.43398 11.4553 9.50472 2.42776C9.976 1.90061 10.7802 1.73041 11.3628 2.0734L15.7528 4.45685C16.3354 4.79984 16.6928 5.59361 16.4192 6.29749L14.6533 11.6545C14.4386 12.2925 13.7731 12.7053 13.1456 12.6779Z" fill="white"/>
</svg>
