<svg width="15" height="14" viewBox="0 0 15 14" fill="none" xmlns="http://www.w3.org/2000/svg">
<path d="M12.333 0C13.4268 0 14.333 0.90625 14.333 2V12C14.333 13.125 13.4268 14 12.333 14H2.33301C1.20801 14 0.333008 13.125 0.333008 12V2C0.333008 0.90625 1.20801 0 2.33301 0H12.333ZM5.33301 10.5V6.5C5.33301 6.25 5.08301 6 4.83301 6H3.83301C3.55176 6 3.33301 6.25 3.33301 6.5V10.5C3.33301 10.7812 3.55176 11 3.83301 11H4.83301C5.08301 11 5.33301 10.7812 5.33301 10.5ZM8.33301 10.5V3.5C8.33301 3.25 8.08301 3 7.83301 3H6.83301C6.55176 3 6.33301 3.25 6.33301 3.5V10.5C6.33301 10.7812 6.55176 11 6.83301 11H7.83301C8.08301 11 8.33301 10.7812 8.33301 10.5ZM11.333 10.5V8.5C11.333 8.25 11.083 8 10.833 8H9.83301C9.55176 8 9.33301 8.25 9.33301 8.5V10.5C9.33301 10.7812 9.55176 11 9.83301 11H10.833C11.083 11 11.333 10.7812 11.333 10.5Z" fill="#3BB24A"/>
</svg>
