<svg width="26" height="21" viewBox="0 0 26 21" fill="none" xmlns="http://www.w3.org/2000/svg">
<path d="M12.9609 13C10.7344 13 8.89844 11.2031 8.89844 8.9375C8.89844 6.71094 10.7344 4.875 12.9609 4.875C15.2266 4.875 17.0234 6.71094 17.0234 8.9375C17.0234 11.2031 15.2266 13 12.9609 13ZM14.9141 14.25C18 14.25 20.5 16.5938 20.5 19.4844C20.5 20.0703 19.9922 20.5 19.3672 20.5H6.59375C5.96875 20.5 5.5 20.0703 5.5 19.4844C5.5 16.5938 7.96094 14.25 11.0469 14.25H14.9141ZM20.5 6.75C18.7422 6.75 17.375 5.38281 17.375 3.625C17.375 1.90625 18.7422 0.5 20.5 0.5C22.2188 0.5 23.625 1.90625 23.625 3.625C23.625 5.38281 22.2188 6.75 20.5 6.75ZM7.64844 8.9375C7.64844 10.2656 8.15625 11.4766 8.97656 12.375H1.16406C0.773438 12.375 0.5 12.0625 0.5 11.6719C0.5 9.64062 2.02344 8 3.9375 8H6.32031C6.82812 8 7.29688 8.11719 7.72656 8.35156C7.6875 8.54688 7.64844 8.74219 7.64844 8.9375ZM5.5 6.75C3.74219 6.75 2.375 5.38281 2.375 3.625C2.375 1.90625 3.74219 0.5 5.5 0.5C7.21875 0.5 8.625 1.90625 8.625 3.625C8.625 5.38281 7.21875 6.75 5.5 6.75ZM22.0234 8C23.9375 8 25.5 9.64062 25.5 11.6719C25.5 12.0625 25.1875 12.375 24.7969 12.375H16.9844C17.8047 11.4766 18.2734 10.2656 18.2734 8.9375C18.2734 8.74219 18.2344 8.54688 18.2344 8.35156C18.6641 8.15625 19.1328 8 19.6406 8H22.0234Z" fill="#81D4FA"/>
</svg>
