<svg width="19" height="21" viewBox="0 0 19 21" fill="none" xmlns="http://www.w3.org/2000/svg">
<path d="M1.25781 3.625C0.554688 3.46875 0.554688 2.57031 1.25781 2.41406L8.71875 0.617188C9.22656 0.5 9.73438 0.5 10.2422 0.617188L17.7031 2.41406C18.4062 2.57031 18.4062 3.46875 17.7031 3.625L14.5 4.40625V6.75C14.5 9.52344 12.2344 11.75 9.5 11.75C6.72656 11.75 4.5 9.52344 4.5 6.75V4.40625L2.46875 3.9375V5.96875C2.74219 6.125 2.9375 6.4375 2.9375 6.75C2.9375 7.10156 2.74219 7.375 2.46875 7.53125L3.09375 9.95312C3.17188 10.2266 3.01562 10.5 2.78125 10.5H1.17969C0.945312 10.5 0.789062 10.2266 0.867188 9.95312L1.49219 7.53125C1.21875 7.375 1.0625 7.10156 1.0625 6.75C1.0625 6.4375 1.25781 6.125 1.53125 5.96875V3.70312L1.25781 3.625ZM13.5234 12.7266C16.2578 13.625 18.25 16.1641 18.25 19.1719C18.25 19.9141 17.625 20.5 16.8828 20.5H2.07812C1.33594 20.5 0.75 19.9141 0.75 19.1719C0.75 16.1641 2.70312 13.625 5.4375 12.7266L9.5 16.75L13.5234 12.7266Z" fill="#81D4FA"/>
</svg>
